<svg xmlns="http://www.w3.org/2000/svg" width="1080" height="1920" viewBox="0 0 1080 1920">
  <defs>
    <linearGradient id="sky" x1="0" x2="0" y1="0" y2="1">
      <stop offset="0" stop-color="#9ee2ff"/>
      <stop offset="0.56" stop-color="#eefbff"/>
      <stop offset="1" stop-color="#fff7e5"/>
    </linearGradient>
    <linearGradient id="asphalt" x1="0" x2="0" y1="0" y2="1">
      <stop offset="0" stop-color="#657584"/>
      <stop offset="1" stop-color="#1f2932"/>
    </linearGradient>
  </defs>
  <rect width="1080" height="1920" fill="url(#sky)"/>
  <g opacity="0.9">
    <rect x="30" y="425" width="152" height="520" rx="18" fill="#73c6e1"/>
    <rect x="210" y="545" width="118" height="402" rx="16" fill="#a1dded"/>
    <rect x="770" y="518" width="148" height="450" rx="18" fill="#82cee4"/>
    <rect x="940" y="390" width="108" height="590" rx="14" fill="#70bddb"/>
  </g>
  <path d="M374 700 L706 700 L1080 1920 L0 1920 Z" fill="#c8f0d5"/>
  <path d="M426 700 L654 700 L940 1920 L140 1920 Z" fill="url(#asphalt)"/>
  <g opacity="0.85" fill="#f8fbff">
    <rect x="500" y="770" width="30" height="90" rx="15"/>
    <rect x="484" y="950" width="42" height="140" rx="21"/>
    <rect x="456" y="1250" width="58" height="210" rx="29"/>
    <rect x="548" y="770" width="30" height="90" rx="15"/>
    <rect x="555" y="950" width="42" height="140" rx="21"/>
    <rect x="572" y="1250" width="58" height="210" rx="29"/>
  </g>
  <g fill="#ffcf4a" opacity="0.85">
    <rect x="200" y="1150" width="98" height="72" rx="16"/>
    <rect x="780" y="1040" width="112" height="86" rx="18"/>
  </g>
  <g fill="#ff4d4d" opacity="0.9">
    <rect x="330" y="1330" width="96" height="78" rx="18"/>
  </g>
</svg>
