<svg xmlns="http://www.w3.org/2000/svg" width="512" height="512" viewBox="0 0 512 512">
  <defs>
    <linearGradient id="bg" x1="0" x2="1" y1="0" y2="1">
      <stop offset="0" stop-color="#e6f7ff"/>
      <stop offset="1" stop-color="#fff3d8"/>
    </linearGradient>
  </defs>
  <rect width="512" height="512" rx="112" fill="url(#bg)"/>
  <ellipse cx="256" cy="420" rx="132" ry="34" fill="#18313e" opacity="0.15"/>
  <path d="M142 418 C158 322 190 266 256 266 C322 266 354 322 370 418 Z" fill="#2f80ed"/>
  <rect x="174" y="290" width="164" height="142" rx="38" fill="#ff8a1f"/>
  <circle cx="256" cy="194" r="84" fill="#ffd1a6"/>
  <path d="M160 190 C168 98 238 64 318 91 C360 106 382 144 386 190 L346 176 C304 138 216 138 174 176 Z" fill="#ff8a1f"/>
  <rect x="166" y="164" width="180" height="40" rx="20" fill="#18232d" opacity="0.16"/>
  <circle cx="224" cy="204" r="10" fill="#17212b"/>
  <circle cx="288" cy="204" r="10" fill="#17212b"/>
  <path d="M224 238 C242 257 276 257 294 238" fill="none" stroke="#17212b" stroke-width="12" stroke-linecap="round"/>
  <rect x="316" y="272" width="108" height="118" rx="22" fill="#ffcf4a"/>
  <path d="M150 344 L110 394" stroke="#2f80ed" stroke-width="28" stroke-linecap="round"/>
  <path d="M362 344 L414 386" stroke="#2f80ed" stroke-width="28" stroke-linecap="round"/>
</svg>
